<?xml version="1.0" encoding="UTF-8"?>
<!DOCTYPE svg PUBLIC "-//W3C//DTD SVG 1.1//EN" "http://www.w3.org/Graphics/SVG/1.1/DTD/svg11.dtd">
<!-- Creator: CorelDRAW 2017 -->
<svg xmlns="http://www.w3.org/2000/svg" xml:space="preserve" width="705.683mm" height="166.727mm" version="1.1" style="shape-rendering:geometricPrecision; text-rendering:geometricPrecision; image-rendering:optimizeQuality; fill-rule:evenodd; clip-rule:evenodd"
viewBox="0 0 47995.5 11339.6"
 xmlns:xlink="http://www.w3.org/1999/xlink">
 <defs>
  <style type="text/css">
   <![CDATA[
    .fil6 {fill:#FEFEFE}
    .fil4 {fill:#DC232C}
    .fil5 {fill:#DD2B31}
    .fil0 {fill:#E01C23}
    .fil3 {fill:whitesmoke}
    .fil2 {fill:#FAFAFA}
    .fil1 {fill:#FBFBFB}
   ]]>
  </style>
 </defs>
 <g id="Layer_x0020_1">
  <metadata id="CorelCorpID_0Corel-Layer"/>
  <path class="fil0" d="M1901.75 8159.83l1.11 -3562.82c510.9,-25.14 1599.26,-9.43 2176.14,-0.14 59.67,334.7 110.98,-174.51 111.63,467.81l-0.59 2111.42c0.49,179.25 96.18,118.06 560.66,118.06l3359.08 0c438.59,0 926.77,-19.95 1359.35,8.87 45.99,257.29 -59.59,197.62 267.02,210.15 24.14,252.99 6.73,577.52 6.83,838.6 0.13,341.43 13.94,453.4 -104.12,732.93 -304.11,720.04 -1009.36,641.99 -1649.05,644.09l-4822.67 -0.08c-955.4,0 -1264.44,-670.36 -1265.39,-1568.88zm7359.71 -4106.1l-2474.6 1.99 -10.85 2696.15 -2156.04 4.29 -13.1 -2699.12 -2683.1 -3.94 -13.79 -1123.83c0,-354.62 211.03,-673.76 413.23,-819.7 379.18,-273.68 876.14,-218.38 1395.77,-216.67l4462.78 -0.07c562.35,0.73 982.68,127.7 1208.89,667.57 120.1,286.61 79.81,893.85 79.85,1232.62 0.04,274.14 59.07,260.71 -209.03,260.71zm-9261.45 1299.14l0 759.04c36.05,57.5 78.6,500.53 98.41,612.86 120.8,684.89 518.29,1649.58 921.11,2191 501.4,673.91 880.38,1049.45 1602.34,1541.07 917.11,624.51 2176.65,904.45 3304.66,881.44 2207.34,-45.02 4183.57,-1538.86 4964.36,-3397.36 794.16,-1890.29 575.08,-3827.14 -546.53,-5519.84 -352.24,-531.59 -880.17,-1020 -1388.19,-1395.09 -1542.1,-1138.58 -3730.25,-1323.78 -5493.12,-584.25 -653.15,274 -1144.89,624.82 -1677.56,1105.87 -477.39,431.13 -889.25,1010.84 -1185.15,1599.13 -164.94,327.92 -280.74,646.95 -386.48,1004.51 -52.82,178.63 -96.18,359.04 -128.59,566.07 -22.97,146.7 -43.4,552.62 -85.27,635.54z"/>
  <path class="fil0" d="M31479.52 3965.84c-55.13,-41.25 -128.82,-30.38 -215.63,-29.28l-1608.86 -0.16c-251.61,-2.73 -220.71,-12.65 -216.78,240.09l-0.01 697.62c-7.35,352.56 114.86,68.19 347.92,324.99 147.4,162.41 82.81,572.66 82.9,825.32l0.86 1824.34c1.03,185.01 -14.87,214.53 -126.04,326.2 -99.4,99.85 -162.66,105.77 -313.87,146.21l2.39 1148.89 2374.74 -3.8 3.13 -1136.79c-319.47,-159.39 -311.85,-219.96 -311.74,-649.51 0.09,-319.91 0,-639.82 0,-959.74 0,-429.39 -124.7,-1523.72 388.75,-1524.6 283.4,-0.48 340.19,351.49 355.01,613.52 22.95,405.85 2.82,1422.58 2.88,1894.81 0.03,241.07 36.39,387.21 -159.74,557.5 -33.57,29.15 -105.31,64.65 -116.1,114.32l2.37 1070.13 2151.51 12.13 -2.86 -1106.26c-75.19,-64.19 -176.31,-75.68 -251.93,-230.8 -68.44,-140.37 -34.81,-1201.13 -34.81,-1400.75 0,-270.28 -95.63,-1512.66 356.63,-1529.61 481.39,-18.04 381.17,1124.24 381.17,1529.61 0,319.91 -0.23,639.83 0.11,959.74 0.62,577.21 -36.89,465.74 -290.88,640.42l-4.49 895.92c-1.31,209.43 -40.56,179.13 2.5,222.54 72.57,82.49 430.62,31.71 559.77,31.69 273.97,-0.06 1663.85,30.91 1720.75,-20.61 61.97,-56.12 21.02,-1113.03 15.27,-1146.13 -147.34,-52.36 -89.56,47.5 -255.53,-112.64 -22.46,-21.68 -30.81,-19.03 -64.99,-52.18 -97.13,-94.18 -71.44,-245.51 -71.05,-411.01 1.63,-688.74 37.39,-2423.72 -10.92,-2899.43 -26.14,-257.37 -129.26,-513.49 -302.71,-675.55 -158.16,-147.77 -407.66,-267.15 -669.36,-287.08 -957.93,-72.98 -1245.58,382.27 -1465.16,484.5 -99.18,-61.85 -257.4,-494.6 -1079.65,-495.53 -476.47,-0.54 -714.73,103.87 -1031.41,346.3 -81.62,62.49 -27.3,52.4 -120.86,74.73 -2.74,-93.79 11.47,-245.77 -23.3,-310.04z"/>
  <path class="fil1" d="M1901.75 8159.83c0.95,898.52 309.99,1568.88 1265.39,1568.88l4822.67 0.08c639.68,-2.1 1344.93,75.96 1649.05,-644.09 118.06,-279.53 104.25,-391.5 104.12,-732.93 -0.1,-261.08 17.32,-585.61 -6.83,-838.6 -326.61,-12.53 -221.03,47.13 -267.02,-210.15 -432.58,-28.82 -920.76,-8.87 -1359.35,-8.87l-3359.08 0c-464.48,0 -560.17,61.2 -560.66,-118.06l0.59 -2111.42c-0.65,-642.32 -51.95,-133.11 -111.63,-467.81 -576.88,-9.3 -1665.24,-25 -2176.14,0.14l-1.11 3562.82z"/>
  <path class="fil0" d="M17696.04 8109.69c-30.89,-175.97 -8.35,-2287.11 13.39,-2372.52 54.41,-213.7 129.67,-588.09 381.05,-581.27 451.45,12.26 372.54,1147.81 372.53,1564.32 -0.01,319.86 2.02,639.93 0.33,959.74 -0.64,121.47 22.29,356.17 -13.94,459.25 -54.12,153.99 -154.97,135.73 -277.37,188.57 -16.23,188.28 -4.8,385.3 -4.77,575.84l26.3 546.17c91.58,59.08 933.87,21.27 1121.12,20.63 301.56,-1.02 870.22,33.65 1147.42,-5.54l-9.7 -1149.03c-367.04,-49.51 -370.25,-220.42 -371.58,-587.9 -2.76,-761.04 37.31,-2230.39 -12.56,-2833.85 -81.72,-988.78 -1058.05,-1210.85 -1740.29,-961.22 -124.89,45.7 -209.38,80.39 -331.98,147.38 -98.29,53.7 -200.92,153.45 -305.02,141.64l-7.58 -2316.08 -2026.27 8.89 1.4 1096.77c525.4,114.06 415.86,195.67 414.23,1117.46l0.48 3840c3.72,393.13 -241.94,281.85 -408.64,358.84l0.06 1136.35 2314.5 -7.22 -10.39 -1129.12c-117.78,-56.88 -246.23,-67.22 -272.72,-218.09z"/>
  <path class="fil0" d="M23285.99 5892.19l-625.45 0.01c-32.68,-120.59 -30.52,-457.22 -1.08,-579.29 111.94,-464.23 564.61,-362.91 630.19,-28.48 24.21,123.44 27.23,490.75 -3.66,607.76zm1355.24 921.6c353.97,2.33 270.98,-8.85 267.98,-381.49 -5.11,-632.5 -57.82,-1069.06 -306.61,-1638.22 -250.51,-573.11 -772.56,-1022.71 -1544.83,-1058.99 -870.63,-40.9 -1386.11,271.38 -1769.04,831.57 -351.16,513.72 -557.74,1236.76 -557.74,2009.61 0,380.34 22.84,871.81 137.6,1178.8 32.52,87 31.71,175.32 70.31,268.9 115.27,279.46 107.19,344.02 302.83,632.93 350.07,516.97 870.94,866.39 1671.98,866.39 1349.53,0 1962.9,-1133.25 2003.9,-2380.37 -238.63,-46.94 -1149.63,-26.33 -1433.68,-12.23 -3.46,461.49 81.58,987.66 -367.17,1063.63 -285.78,48.38 -470.04,-125.93 -473.73,-442.39 -3.33,-285.68 -12.83,-666.85 9.22,-937.59l1988.99 -0.56z"/>
  <path class="fil0" d="M38639.69 5892.8c-45.09,-315.4 -29.27,-874.67 326.01,-876.61 373.55,-2.03 348.33,548.9 320.4,880.59l-646.41 -3.98zm2242.87 923.4c131.84,-412.74 -73.47,-1576.31 -334.49,-2085.74 -507.72,-990.93 -1724.85,-1210.87 -2515.98,-812.74 -1942.32,977.47 -1689.56,5255.7 380.95,5565.8 756.44,113.3 1376.42,-9.73 1847.09,-508.59 405.55,-429.85 648.3,-1075.47 629.42,-1830.25l-1400.44 5.88c-16.07,238.42 35.35,559.46 -44.02,767.64 -114.99,301.63 -585.01,434.01 -771.38,76.25 -76.34,-146.55 -42.17,-958.16 -38.24,-1149.11 434.04,-78.82 1998.17,65.12 2247.09,-29.14z"/>
  <path class="fil0" d="M43308.1 5660.58c-67.96,-76.68 -138.88,-240.66 -166.7,-335.52 -26.35,-89.84 -42.12,-148.89 6.99,-203.17l161.06 -81.2 -16.17 -1041.77c-8.33,-100.67 -1987.9,-44.07 -2213.25,-36.73l7.07 1119.48c165.69,71.53 339.08,164.58 455.33,308.78 90.03,111.68 200.75,318.74 282.46,460.32l427.83 703.08c153.89,271.01 237.45,210.79 52.18,459.79l-823.4 1047.03c-74.49,91.06 -118.13,121.48 -191.88,190.92 -92.8,87.37 -138.24,75.15 -288.93,79.03l5.14 1151.82 1898.37 -3.9 -5.23 -1128.03c-67.58,-27.48 -146.21,-21.95 -139.71,-140.3 4.53,-82.52 289.61,-439.48 332.9,-477.82 37.81,36.82 253.14,439.75 253.52,538.42 -29.91,22.25 -53.14,35.34 -93.3,47.43l-97.1 24.68c-51.25,-89.97 -57.49,1074.57 -19.59,1116.42 38.79,42.85 2153.48,29.25 2209.07,20.75 54.37,-8.32 33.37,-5.29 58.15,-17.29 54.06,-121.91 26.77,-915.08 14.59,-1112.81 -265.92,-16.72 -390.67,-126.27 -495.81,-316.87 -144.18,-261.36 -921.85,-1391.48 -904.75,-1504.86 10.34,-68.52 834.46,-1126.09 943.05,-1226.38 239.49,-221.16 229.41,-128.79 463.68,-230.43l-8.89 -1112.29 -1937.63 8.07 2.95 1097.99c47.09,44.94 70.44,47.18 117.96,93.84 -18.3,158.29 -192.16,417.53 -289.98,501.5z"/>
  <path class="fil0" d="M13524.47 1869.88c-73.84,704.42 -117.06,1498.24 -869.88,1635.22 -103.52,18.84 -184.53,-8.8 -212.26,79.51l-2.89 1093.75c29.56,165.06 361.66,4.29 445.03,90.88 61.36,63.73 12.74,3021.35 21.37,3534.98 10.86,646.32 524.03,1170.58 1157.58,1216.74 379.48,27.65 715.01,-67.46 927.67,-238.07 598.1,-479.8 400.4,-1903.24 389.39,-1914.49 -26.24,-14.55 -3.72,-7.96 -53.27,-16.51 -21.74,-3.75 -43.62,-4.45 -65.69,-5.16l-383.89 23.01c-126.49,218.93 138.09,865.54 -217.66,853.54 -146.09,-173.64 -79.85,-1374.44 -79.85,-1694.99 0,-314.75 -16.71,-1574.14 10.81,-1780.51l716.92 -0.07 -3.03 -1218.8 -723.73 -1.4 0.64 -1661.35 -1057.27 3.73z"/>
  <path class="fil0" d="M27703.81 8335.98c-217.26,-75.14 -191.81,0.83 -361.32,-166.52 -139.62,-137.84 -118.63,-173.06 -117.87,-417.5l0.17 -2063.46c-0.77,-229.76 39.09,-667.13 357.97,-660.47 16.62,293.66 -101.47,509.44 112.81,750.32 163.12,183.36 354.08,259.41 664.64,259.71 313.97,0.31 458.01,-102.97 607.16,-294.1 11.75,-15.06 6.95,-5.3 30.91,-41.52l51.9 -94.52c94.54,-186.96 123.72,-348.16 123.96,-567.25 1.12,-993.69 -658.8,-1394.81 -1383.56,-1166.08 -282.02,89 -327.07,162.37 -531.85,307l-34.31 -243.66 -2053.69 6.54 14.6 1104.02c119.36,49.74 173.56,14.7 295.19,113.42 30.76,24.96 80.4,88.57 87.12,101.14 64.74,121.25 28.93,2206.83 28.93,2512.86 0,444.52 -101.58,418.7 -428.51,551.43l5.27 1074.63c18.53,72.24 -16.84,4.2 26.06,50.76 52.13,40.22 1802.33,18.51 1985.15,17.88 660.98,-2.24 519.37,102.49 519.71,-567.02 0.1,-189.18 -1.24,-379.25 -0.43,-567.64z"/>
  <path class="fil2" d="M2447.12 3121.22c0,-515.01 175.95,-697.5 696.02,-697.57l5230.57 -0.06c657.92,0 561,722.89 549.31,1078.98 -315.42,37.52 -1723.22,6.39 -2228.85,6.46 -551.54,0.08 -471.12,-50.79 -470.85,260.01 0.53,604.68 27.37,1916.32 -11.69,2442.85l-1055.26 -0.16 -5.07 -2442.69c0.31,-318.28 11.17,-264.54 -232.11,-260.55l-1056.25 0.55c-1603.88,0 -1415.82,133 -1415.82,-387.82zm6814.33 932.52c268.1,0.01 209.07,13.43 209.03,-260.71 -0.03,-338.76 40.25,-946 -79.85,-1232.62 -226.21,-539.87 -646.54,-666.85 -1208.89,-667.57l-4462.78 0.07c-519.63,-1.71 -1016.59,-57.02 -1395.77,216.67 -202.2,145.94 -413.23,465.08 -413.23,819.7l13.79 1123.83 2683.1 3.94 13.1 2699.12 2156.04 -4.29 10.85 -2696.15 2474.6 -1.99z"/>
  <path class="fil0" d="M2447.12 3121.22c0,520.82 -188.06,387.82 1415.82,387.82l1056.25 -0.55c243.29,-3.99 232.43,-57.73 232.11,260.55l5.07 2442.69 1055.26 0.16c39.06,-526.53 12.22,-1838.17 11.69,-2442.85 -0.27,-310.8 -80.7,-259.92 470.85,-260.01 505.63,-0.07 1913.43,31.05 2228.85,-6.46 11.7,-356.09 108.61,-1078.98 -549.31,-1078.98l-5230.57 0.06c-520.07,0.07 -696.02,182.55 -696.02,697.57z"/>
  <path class="fil3" d="M46448.09 2401.22c297.88,-4.19 638.25,-43.26 790,149.38 73.98,93.92 99.56,240.54 53.63,376.93 -55.68,165.31 -120.21,93.01 -220.65,241.67 69.35,150.28 306.91,328.64 351.91,489.3 -124.71,1.73 -252.61,14.51 -371.91,-20.91 -57.42,-110.28 -65.17,-114.68 -138.15,-212.44 -104.29,-139.7 -77.34,-153.65 -175.29,-189.99 -6.38,456.54 61.14,428.6 -298.79,422.48l9.24 -1256.42zm-419.07 815.97c80.79,391.13 505.24,808.45 1026.12,699.37 757.87,-158.71 943.11,-1169.45 355.33,-1610.18 -643.97,-482.87 -1546.17,113.32 -1381.46,910.81z"/>
  <path class="fil4" d="M46027 3213.41c-164.71,-797.5 737.49,-1393.68 1381.46,-910.81 587.77,440.73 402.53,1451.47 -355.33,1610.18 -520.88,109.08 -945.34,-308.24 -1026.12,-699.37zm1527.15 -1057.46c-194.58,-156.8 -483.08,-258.59 -810.26,-212.89 -1337.15,186.8 -1182.63,2112.77 63.8,2177.27 332.05,17.18 577.47,-72.84 778.02,-250.61 558.07,-494.68 544.77,-1249.33 -31.56,-1713.77z"/>
  <path class="fil5" d="M46438.85 3657.64c359.92,6.12 292.41,34.05 298.79,-422.48 103.72,10.03 90.5,-33.92 327.28,406.32l358.07 17.03c-45,-160.67 -295.15,-369.62 -351.91,-489.3 26.66,-132.46 164.98,-76.36 220.65,-241.67 45.93,-136.39 20.35,-283.01 -53.63,-376.93 -151.75,-192.65 -492.12,-153.57 -790,-149.38l-9.24 1256.42z"/>
  <path class="fil2" d="M23285.99 5892.19c30.88,-117.01 27.86,-484.33 3.66,-607.76 -65.58,-334.43 -518.24,-435.75 -630.19,28.48 -29.44,122.08 -31.6,458.7 1.08,579.29l625.45 -0.01z"/>
  <path class="fil2" d="M38639.69 5892.8l646.41 3.98c27.93,-331.69 53.15,-882.62 -320.4,-880.59 -355.27,1.94 -371.1,561.21 -326.01,876.61z"/>
  <path class="fil6" d="M46722.66 2579.88l163.75 0c254.46,23.45 242.81,359.24 3.6,365.3l-167.36 0 0 -365.3z"/>
 </g>
</svg>
